<?xml version="1.0" encoding="UTF-8" standalone="no"?>
<!DOCTYPE svg PUBLIC "-//W3C//DTD SVG 20010904//EN" "http://www.w3.org/TR/2001/REC-SVG-20010904/DTD/svg10.dtd">
<svg version="1.0" xmlns="http://www.w3.org/2000/svg" width="1280.000000pt" height="1280.000000pt" viewBox="0 0 1280.000000 1280.000000" preserveAspectRatio="xMidYMid meet">
<metadata>
Created by potrace 1.15, written by Peter Selinger 2001-2017
</metadata>
<g transform="translate(0.000000,1280.000000) scale(0.100000,-0.100000)" fill="#000000" stroke="none">
<path d="M0 12753 l0 -47 45 44 c25 24 45 45 45 47 0 2 -20 3 -45 3 l-45 0 0 -47z"/>
<path d="M1233 12753 l47 -48 47 48 48 47 -95 0 -95 0 48 -47z"/>
<path d="M2513 12753 l47 -48 47 48 48 47 -95 0 -95 0 48 -47z"/>
<path d="M3793 12753 l47 -48 47 48 48 47 -95 0 -95 0 48 -47z"/>
<path d="M5073 12753 l47 -48 47 48 48 47 -95 0 -95 0 48 -47z"/>
<path d="M6353 12753 l47 -48 47 48 48 47 -95 0 -95 0 48 -47z"/>
<path d="M7633 12753 l47 -48 47 48 48 47 -95 0 -95 0 48 -47z"/>
<path d="M8913 12753 l47 -48 47 48 48 47 -95 0 -95 0 48 -47z"/>
<path d="M10193 12753 l47 -48 47 48 48 47 -95 0 -95 0 48 -47z"/>
<path d="M11473 12753 l47 -48 47 48 48 47 -95 0 -95 0 48 -47z"/>
<path d="M12750 12755 c24 -25 45 -45 47 -45 2 0 3 20 3 45 l0 45 -47 0 -47 0 44 -45z"/>
<path d="M580 12215 l-55 -55 58 -58 57 -57 57 57 58 58 -55 55 c-30 30 -57 55 -60 55 -3 0 -30 -25 -60 -55z"/>
<path d="M1860 12215 l-55 -55 58 -58 57 -57 57 57 58 58 -55 55 c-30 30 -57 55 -60 55 -3 0 -30 -25 -60 -55z"/>
<path d="M3140 12215 l-55 -55 58 -58 57 -57 57 57 58 58 -55 55 c-30 30 -57 55 -60 55 -3 0 -30 -25 -60 -55z"/>
<path d="M4420 12215 l-55 -55 58 -58 57 -57 57 57 58 58 -55 55 c-30 30 -57 55 -60 55 -3 0 -30 -25 -60 -55z"/>
<path d="M5700 12215 l-55 -55 58 -58 57 -57 57 57 58 58 -55 55 c-30 30 -57 55 -60 55 -3 0 -30 -25 -60 -55z"/>
<path d="M6980 12215 l-55 -55 58 -58 57 -57 57 57 58 58 -55 55 c-30 30 -57 55 -60 55 -3 0 -30 -25 -60 -55z"/>
<path d="M8260 12215 l-55 -55 58 -58 57 -57 57 57 58 58 -55 55 c-30 30 -57 55 -60 55 -3 0 -30 -25 -60 -55z"/>
<path d="M9540 12215 l-55 -55 58 -58 57 -57 57 57 58 58 -55 55 c-30 30 -57 55 -60 55 -3 0 -30 -25 -60 -55z"/>
<path d="M10820 12215 l-55 -55 58 -58 57 -57 57 57 58 58 -55 55 c-30 30 -57 55 -60 55 -3 0 -30 -25 -60 -55z"/>
<path d="M12100 12215 l-55 -55 58 -58 57 -57 57 57 58 58 -55 55 c-30 30 -57 55 -60 55 -3 0 -30 -25 -60 -55z"/>
<path d="M0 11520 l0 -135 67 68 68 67 -68 67 -67 68 0 -135z"/>
<path d="M1210 11585 l-65 -65 68 -68 67 -67 67 67 68 68 -65 65 c-35 36 -67 65 -70 65 -3 0 -35 -29 -70 -65z"/>
<path d="M2490 11585 l-65 -65 68 -68 67 -67 67 67 68 68 -65 65 c-35 36 -67 65 -70 65 -3 0 -35 -29 -70 -65z"/>
<path d="M3770 11585 l-65 -65 68 -68 67 -67 67 67 68 68 -65 65 c-35 36 -67 65 -70 65 -3 0 -35 -29 -70 -65z"/>
<path d="M5050 11585 l-65 -65 68 -68 67 -67 67 67 68 68 -65 65 c-35 36 -67 65 -70 65 -3 0 -35 -29 -70 -65z"/>
<path d="M6330 11585 l-65 -65 68 -68 67 -67 67 67 68 68 -65 65 c-35 36 -67 65 -70 65 -3 0 -35 -29 -70 -65z"/>
<path d="M7610 11585 l-65 -65 68 -68 67 -67 67 67 68 68 -65 65 c-35 36 -67 65 -70 65 -3 0 -35 -29 -70 -65z"/>
<path d="M8890 11585 l-65 -65 68 -68 67 -67 67 67 68 68 -65 65 c-35 36 -67 65 -70 65 -3 0 -35 -29 -70 -65z"/>
<path d="M10170 11585 l-65 -65 68 -68 67 -67 67 67 68 68 -65 65 c-35 36 -67 65 -70 65 -3 0 -35 -29 -70 -65z"/>
<path d="M11450 11585 l-65 -65 68 -68 67 -67 67 67 68 68 -65 65 c-35 36 -67 65 -70 65 -3 0 -35 -29 -70 -65z"/>
<path d="M12730 11585 l-65 -65 68 -68 67 -67 0 133 c0 72 -1 132 -3 132 -1 0 -32 -29 -67 -65z"/>
<path d="M555 10960 l-80 -80 83 -83 82 -82 82 82 83 83 -80 80 c-44 44 -82 80 -85 80 -3 0 -41 -36 -85 -80z"/>
<path d="M1835 10960 l-80 -80 83 -83 82 -82 82 82 83 83 -80 80 c-44 44 -82 80 -85 80 -3 0 -41 -36 -85 -80z"/>
<path d="M3115 10960 l-80 -80 83 -83 82 -82 82 82 83 83 -80 80 c-44 44 -82 80 -85 80 -3 0 -41 -36 -85 -80z"/>
<path d="M4395 10960 l-80 -80 83 -83 82 -82 82 82 83 83 -80 80 c-44 44 -82 80 -85 80 -3 0 -41 -36 -85 -80z"/>
<path d="M5675 10960 l-80 -80 83 -83 82 -82 82 82 83 83 -80 80 c-44 44 -82 80 -85 80 -3 0 -41 -36 -85 -80z"/>
<path d="M6955 10960 l-80 -80 83 -83 82 -82 82 82 83 83 -80 80 c-44 44 -82 80 -85 80 -3 0 -41 -36 -85 -80z"/>
<path d="M8235 10960 l-80 -80 83 -83 82 -82 82 82 83 83 -80 80 c-44 44 -82 80 -85 80 -3 0 -41 -36 -85 -80z"/>
<path d="M9515 10960 l-80 -80 83 -83 82 -82 82 82 83 83 -80 80 c-44 44 -82 80 -85 80 -3 0 -41 -36 -85 -80z"/>
<path d="M10795 10960 l-80 -80 83 -83 82 -82 82 82 83 83 -80 80 c-44 44 -82 80 -85 80 -3 0 -41 -36 -85 -80z"/>
<path d="M12075 10960 l-80 -80 83 -83 82 -82 82 82 83 83 -80 80 c-44 44 -82 80 -85 80 -3 0 -41 -36 -85 -80z"/>
<path d="M0 10240 l0 -185 92 93 93 92 -93 92 -92 93 0 -185z"/>
<path d="M1185 10330 l-90 -90 93 -93 92 -92 92 92 93 93 -90 90 c-49 49 -92 90 -95 90 -3 0 -46 -41 -95 -90z"/>
<path d="M2465 10330 l-90 -90 93 -93 92 -92 92 92 93 93 -90 90 c-49 49 -92 90 -95 90 -3 0 -46 -41 -95 -90z"/>
<path d="M3745 10330 l-90 -90 93 -93 92 -92 92 92 93 93 -90 90 c-49 49 -92 90 -95 90 -3 0 -46 -41 -95 -90z"/>
<path d="M5025 10330 l-90 -90 93 -93 92 -92 92 92 93 93 -90 90 c-49 49 -92 90 -95 90 -3 0 -46 -41 -95 -90z"/>
<path d="M6305 10330 l-90 -90 93 -93 92 -92 92 92 93 93 -90 90 c-49 49 -92 90 -95 90 -3 0 -46 -41 -95 -90z"/>
<path d="M7585 10330 l-90 -90 93 -93 92 -92 92 92 93 93 -90 90 c-49 49 -92 90 -95 90 -3 0 -46 -41 -95 -90z"/>
<path d="M8865 10330 l-90 -90 93 -93 92 -92 92 92 93 93 -90 90 c-49 49 -92 90 -95 90 -3 0 -46 -41 -95 -90z"/>
<path d="M10145 10330 l-90 -90 93 -93 92 -92 92 92 93 93 -90 90 c-49 49 -92 90 -95 90 -3 0 -46 -41 -95 -90z"/>
<path d="M11425 10330 l-90 -90 93 -93 92 -92 92 92 93 93 -90 90 c-49 49 -92 90 -95 90 -3 0 -46 -41 -95 -90z"/>
<path d="M12705 10330 l-90 -90 93 -93 92 -92 0 183 c0 100 -1 182 -3 182 -1 0 -43 -41 -92 -90z"/>
<path d="M535 9700 l-100 -100 103 -103 102 -102 102 102 103 103 -100 100 c-55 55 -102 100 -105 100 -3 0 -50 -45 -105 -100z"/>
<path d="M1815 9700 l-100 -100 103 -103 102 -102 102 102 103 103 -100 100 c-55 55 -102 100 -105 100 -3 0 -50 -45 -105 -100z"/>
<path d="M3095 9700 l-100 -100 103 -103 102 -102 102 102 103 103 -100 100 c-55 55 -102 100 -105 100 -3 0 -50 -45 -105 -100z"/>
<path d="M4375 9700 l-100 -100 103 -103 102 -102 102 102 103 103 -100 100 c-55 55 -102 100 -105 100 -3 0 -50 -45 -105 -100z"/>
<path d="M5655 9700 l-100 -100 103 -103 102 -102 102 102 103 103 -100 100 c-55 55 -102 100 -105 100 -3 0 -50 -45 -105 -100z"/>
<path d="M6935 9700 l-100 -100 103 -103 102 -102 102 102 103 103 -100 100 c-55 55 -102 100 -105 100 -3 0 -50 -45 -105 -100z"/>
<path d="M8215 9700 l-100 -100 103 -103 102 -102 102 102 103 103 -100 100 c-55 55 -102 100 -105 100 -3 0 -50 -45 -105 -100z"/>
<path d="M9495 9700 l-100 -100 103 -103 102 -102 102 102 103 103 -100 100 c-55 55 -102 100 -105 100 -3 0 -50 -45 -105 -100z"/>
<path d="M10775 9700 l-100 -100 103 -103 102 -102 102 102 103 103 -100 100 c-55 55 -102 100 -105 100 -3 0 -50 -45 -105 -100z"/>
<path d="M12055 9700 l-100 -100 103 -103 102 -102 102 102 103 103 -100 100 c-55 55 -102 100 -105 100 -3 0 -50 -45 -105 -100z"/>
<path d="M0 8967 c0 -125 3 -227 8 -227 4 0 57 50 117 110 l110 110 -118 118 -117 117 0 -228z"/>
<path d="M1160 9075 l-115 -115 118 -118 117 -117 117 117 118 118 -115 115 c-63 63 -117 115 -120 115 -3 0 -57 -52 -120 -115z"/>
<path d="M2440 9075 l-115 -115 118 -118 117 -117 117 117 118 118 -115 115 c-63 63 -117 115 -120 115 -3 0 -57 -52 -120 -115z"/>
<path d="M3720 9075 l-115 -115 118 -118 117 -117 117 117 118 118 -115 115 c-63 63 -117 115 -120 115 -3 0 -57 -52 -120 -115z"/>
<path d="M5000 9075 l-115 -115 118 -118 117 -117 117 117 118 118 -115 115 c-63 63 -117 115 -120 115 -3 0 -57 -52 -120 -115z"/>
<path d="M6280 9075 l-115 -115 118 -118 117 -117 117 117 118 118 -115 115 c-63 63 -117 115 -120 115 -3 0 -57 -52 -120 -115z"/>
<path d="M7560 9075 l-115 -115 118 -118 117 -117 117 117 118 118 -115 115 c-63 63 -117 115 -120 115 -3 0 -57 -52 -120 -115z"/>
<path d="M8840 9075 l-115 -115 118 -118 117 -117 117 117 118 118 -115 115 c-63 63 -117 115 -120 115 -3 0 -57 -52 -120 -115z"/>
<path d="M10120 9075 l-115 -115 118 -118 117 -117 117 117 118 118 -115 115 c-63 63 -117 115 -120 115 -3 0 -57 -52 -120 -115z"/>
<path d="M11400 9075 l-115 -115 118 -118 117 -117 117 117 118 118 -115 115 c-63 63 -117 115 -120 115 -3 0 -57 -52 -120 -115z"/>
<path d="M12680 9075 l-115 -115 112 -112 c62 -62 115 -110 118 -107 3 4 4 106 3 228 l-3 221 -115 -115z"/>
<path d="M510 8445 l-125 -125 128 -128 127 -127 127 127 128 128 -125 125 c-69 69 -127 125 -130 125 -3 0 -61 -56 -130 -125z"/>
<path d="M1790 8445 l-125 -125 128 -128 127 -127 127 127 128 128 -125 125 c-69 69 -127 125 -130 125 -3 0 -61 -56 -130 -125z"/>
<path d="M3070 8445 l-125 -125 128 -128 127 -127 127 127 128 128 -125 125 c-69 69 -127 125 -130 125 -3 0 -61 -56 -130 -125z"/>
<path d="M4350 8445 l-125 -125 128 -128 127 -127 127 127 128 128 -125 125 c-69 69 -127 125 -130 125 -3 0 -61 -56 -130 -125z"/>
<path d="M5630 8445 l-125 -125 128 -128 127 -127 127 127 128 128 -125 125 c-69 69 -127 125 -130 125 -3 0 -61 -56 -130 -125z"/>
<path d="M6910 8445 l-125 -125 128 -128 127 -127 127 127 128 128 -125 125 c-69 69 -127 125 -130 125 -3 0 -61 -56 -130 -125z"/>
<path d="M8190 8445 l-125 -125 128 -128 127 -127 127 127 128 128 -125 125 c-69 69 -127 125 -130 125 -3 0 -61 -56 -130 -125z"/>
<path d="M9470 8445 l-125 -125 128 -128 127 -127 127 127 128 128 -125 125 c-69 69 -127 125 -130 125 -3 0 -61 -56 -130 -125z"/>
<path d="M10750 8445 l-125 -125 128 -128 127 -127 127 127 128 128 -125 125 c-69 69 -127 125 -130 125 -3 0 -61 -56 -130 -125z"/>
<path d="M12030 8445 l-125 -125 128 -128 127 -127 127 127 128 128 -125 125 c-69 69 -127 125 -130 125 -3 0 -61 -56 -130 -125z"/>
<path d="M0 7680 l0 -275 137 138 138 137 -138 137 -137 138 0 -275z"/>
<path d="M1140 7815 l-135 -135 138 -138 137 -137 137 137 138 138 -135 135 c-74 74 -137 135 -140 135 -3 0 -66 -61 -140 -135z"/>
<path d="M2420 7815 l-135 -135 138 -138 137 -137 137 137 138 138 -135 135 c-74 74 -137 135 -140 135 -3 0 -66 -61 -140 -135z"/>
<path d="M3700 7815 l-135 -135 138 -138 137 -137 137 137 138 138 -135 135 c-74 74 -137 135 -140 135 -3 0 -66 -61 -140 -135z"/>
<path d="M4980 7815 l-135 -135 138 -138 137 -137 137 137 138 138 -135 135 c-74 74 -137 135 -140 135 -3 0 -66 -61 -140 -135z"/>
<path d="M6260 7815 l-135 -135 138 -138 137 -137 137 137 138 138 -135 135 c-74 74 -137 135 -140 135 -3 0 -66 -61 -140 -135z"/>
<path d="M7540 7815 l-135 -135 138 -138 137 -137 137 137 138 138 -135 135 c-74 74 -137 135 -140 135 -3 0 -66 -61 -140 -135z"/>
<path d="M8820 7815 l-135 -135 138 -138 137 -137 137 137 138 138 -135 135 c-74 74 -137 135 -140 135 -3 0 -66 -61 -140 -135z"/>
<path d="M10100 7815 l-135 -135 138 -138 137 -137 137 137 138 138 -135 135 c-74 74 -137 135 -140 135 -3 0 -66 -61 -140 -135z"/>
<path d="M11380 7815 l-135 -135 138 -138 137 -137 137 137 138 138 -135 135 c-74 74 -137 135 -140 135 -3 0 -66 -61 -140 -135z"/>
<path d="M12660 7815 l-135 -135 138 -138 137 -137 0 273 c0 149 -1 272 -3 272 -1 0 -63 -61 -137 -135z"/>
<path d="M490 7185 l-145 -145 148 -148 147 -147 147 147 148 148 -145 145 c-80 80 -147 145 -150 145 -3 0 -70 -65 -150 -145z"/>
<path d="M1770 7185 l-145 -145 148 -148 147 -147 147 147 148 148 -145 145 c-80 80 -147 145 -150 145 -3 0 -70 -65 -150 -145z"/>
<path d="M3050 7185 l-145 -145 148 -148 147 -147 147 147 148 148 -145 145 c-80 80 -147 145 -150 145 -3 0 -70 -65 -150 -145z"/>
<path d="M4330 7185 l-145 -145 148 -148 147 -147 147 147 148 148 -145 145 c-80 80 -147 145 -150 145 -3 0 -70 -65 -150 -145z"/>
<path d="M5610 7185 l-145 -145 148 -148 147 -147 147 147 148 148 -145 145 c-80 80 -147 145 -150 145 -3 0 -70 -65 -150 -145z"/>
<path d="M6890 7185 l-145 -145 148 -148 147 -147 147 147 148 148 -145 145 c-80 80 -147 145 -150 145 -3 0 -70 -65 -150 -145z"/>
<path d="M8170 7185 l-145 -145 148 -148 147 -147 147 147 148 148 -145 145 c-80 80 -147 145 -150 145 -3 0 -70 -65 -150 -145z"/>
<path d="M9450 7185 l-145 -145 148 -148 147 -147 147 147 148 148 -145 145 c-80 80 -147 145 -150 145 -3 0 -70 -65 -150 -145z"/>
<path d="M10730 7185 l-145 -145 148 -148 147 -147 147 147 148 148 -145 145 c-80 80 -147 145 -150 145 -3 0 -70 -65 -150 -145z"/>
<path d="M12010 7185 l-145 -145 148 -148 147 -147 147 147 148 148 -145 145 c-80 80 -147 145 -150 145 -3 0 -70 -65 -150 -145z"/>
<path d="M0 6400 l0 -325 162 163 163 162 -163 162 -162 163 0 -325z"/>
<path d="M1115 6560 l-160 -160 163 -163 162 -162 162 162 163 163 -160 160 c-88 88 -162 160 -165 160 -3 0 -77 -72 -165 -160z"/>
<path d="M2395 6560 l-160 -160 163 -163 162 -162 162 162 163 163 -160 160 c-88 88 -162 160 -165 160 -3 0 -77 -72 -165 -160z"/>
<path d="M3675 6560 l-160 -160 163 -163 162 -162 162 162 163 163 -160 160 c-88 88 -162 160 -165 160 -3 0 -77 -72 -165 -160z"/>
<path d="M4955 6560 l-160 -160 163 -163 162 -162 162 162 163 163 -160 160 c-88 88 -162 160 -165 160 -3 0 -77 -72 -165 -160z"/>
<path d="M6235 6560 l-160 -160 163 -163 162 -162 162 162 163 163 -160 160 c-88 88 -162 160 -165 160 -3 0 -77 -72 -165 -160z"/>
<path d="M7515 6560 l-160 -160 163 -163 162 -162 162 162 163 163 -160 160 c-88 88 -162 160 -165 160 -3 0 -77 -72 -165 -160z"/>
<path d="M8795 6560 l-160 -160 163 -163 162 -162 162 162 163 163 -160 160 c-88 88 -162 160 -165 160 -3 0 -77 -72 -165 -160z"/>
<path d="M10075 6560 l-160 -160 163 -163 162 -162 162 162 163 163 -160 160 c-88 88 -162 160 -165 160 -3 0 -77 -72 -165 -160z"/>
<path d="M11355 6560 l-160 -160 163 -163 162 -162 162 162 163 163 -160 160 c-88 88 -162 160 -165 160 -3 0 -77 -72 -165 -160z"/>
<path d="M12635 6560 l-160 -160 163 -163 162 -162 0 323 c0 177 -1 322 -3 322 -1 0 -74 -72 -162 -160z"/>
<path d="M465 5930 l-170 -170 173 -173 172 -172 172 172 173 173 -170 170 c-93 93 -172 170 -175 170 -3 0 -82 -77 -175 -170z"/>
<path d="M1745 5930 l-170 -170 173 -173 172 -172 172 172 173 173 -170 170 c-93 93 -172 170 -175 170 -3 0 -82 -77 -175 -170z"/>
<path d="M3025 5930 l-170 -170 173 -173 172 -172 172 172 173 173 -170 170 c-93 93 -172 170 -175 170 -3 0 -82 -77 -175 -170z"/>
<path d="M4305 5930 l-170 -170 173 -173 172 -172 172 172 173 173 -170 170 c-93 93 -172 170 -175 170 -3 0 -82 -77 -175 -170z"/>
<path d="M5585 5930 l-170 -170 173 -173 172 -172 172 172 173 173 -170 170 c-93 93 -172 170 -175 170 -3 0 -82 -77 -175 -170z"/>
<path d="M6865 5930 l-170 -170 173 -173 172 -172 172 172 173 173 -170 170 c-93 93 -172 170 -175 170 -3 0 -82 -77 -175 -170z"/>
<path d="M8145 5930 l-170 -170 173 -173 172 -172 172 172 173 173 -170 170 c-93 93 -172 170 -175 170 -3 0 -82 -77 -175 -170z"/>
<path d="M9425 5930 l-170 -170 173 -173 172 -172 172 172 173 173 -170 170 c-93 93 -172 170 -175 170 -3 0 -82 -77 -175 -170z"/>
<path d="M10705 5930 l-170 -170 173 -173 172 -172 172 172 173 173 -170 170 c-93 93 -172 170 -175 170 -3 0 -82 -77 -175 -170z"/>
<path d="M11985 5930 l-170 -170 173 -173 172 -172 172 172 173 173 -170 170 c-93 93 -172 170 -175 170 -3 0 -82 -77 -175 -170z"/>
<path d="M0 5120 l0 -365 182 183 183 182 -183 182 -182 183 0 -365z"/>
<path d="M1095 5300 l-180 -180 183 -183 182 -182 182 182 183 183 -180 180 c-99 99 -182 180 -185 180 -3 0 -86 -81 -185 -180z"/>
<path d="M2375 5300 l-180 -180 183 -183 182 -182 182 182 183 183 -180 180 c-99 99 -182 180 -185 180 -3 0 -86 -81 -185 -180z"/>
<path d="M3655 5300 l-180 -180 183 -183 182 -182 182 182 183 183 -180 180 c-99 99 -182 180 -185 180 -3 0 -86 -81 -185 -180z"/>
<path d="M4935 5300 l-180 -180 183 -183 182 -182 182 182 183 183 -180 180 c-99 99 -182 180 -185 180 -3 0 -86 -81 -185 -180z"/>
<path d="M6215 5300 l-180 -180 183 -183 182 -182 182 182 183 183 -180 180 c-99 99 -182 180 -185 180 -3 0 -86 -81 -185 -180z"/>
<path d="M7495 5300 l-180 -180 183 -183 182 -182 182 182 183 183 -180 180 c-99 99 -182 180 -185 180 -3 0 -86 -81 -185 -180z"/>
<path d="M8775 5300 l-180 -180 183 -183 182 -182 182 182 183 183 -180 180 c-99 99 -182 180 -185 180 -3 0 -86 -81 -185 -180z"/>
<path d="M10055 5300 l-180 -180 183 -183 182 -182 182 182 183 183 -180 180 c-99 99 -182 180 -185 180 -3 0 -86 -81 -185 -180z"/>
<path d="M11335 5300 l-180 -180 183 -183 182 -182 182 182 183 183 -180 180 c-99 99 -182 180 -185 180 -3 0 -86 -81 -185 -180z"/>
<path d="M12615 5300 l-180 -180 183 -183 182 -182 0 363 c0 199 -1 362 -3 362 -1 0 -83 -81 -182 -180z"/>
<path d="M440 4675 l-195 -195 198 -198 197 -197 197 197 198 198 -195 195 c-107 107 -197 195 -200 195 -3 0 -93 -88 -200 -195z"/>
<path d="M1720 4675 l-195 -195 198 -198 197 -197 197 197 198 198 -195 195 c-107 107 -197 195 -200 195 -3 0 -93 -88 -200 -195z"/>
<path d="M3000 4675 l-195 -195 198 -198 197 -197 197 197 198 198 -195 195 c-107 107 -197 195 -200 195 -3 0 -93 -88 -200 -195z"/>
<path d="M4280 4675 l-195 -195 198 -198 197 -197 197 197 198 198 -195 195 c-107 107 -197 195 -200 195 -3 0 -93 -88 -200 -195z"/>
<path d="M5560 4675 l-195 -195 198 -198 197 -197 197 197 198 198 -195 195 c-107 107 -197 195 -200 195 -3 0 -93 -88 -200 -195z"/>
<path d="M6840 4675 l-195 -195 198 -198 197 -197 197 197 198 198 -195 195 c-107 107 -197 195 -200 195 -3 0 -93 -88 -200 -195z"/>
<path d="M8120 4675 l-195 -195 198 -198 197 -197 197 197 198 198 -195 195 c-107 107 -197 195 -200 195 -3 0 -93 -88 -200 -195z"/>
<path d="M9400 4675 l-195 -195 198 -198 197 -197 197 197 198 198 -195 195 c-107 107 -197 195 -200 195 -3 0 -93 -88 -200 -195z"/>
<path d="M10680 4675 l-195 -195 198 -198 197 -197 197 197 198 198 -195 195 c-107 107 -197 195 -200 195 -3 0 -93 -88 -200 -195z"/>
<path d="M11960 4675 l-195 -195 198 -198 197 -197 197 197 198 198 -195 195 c-107 107 -197 195 -200 195 -3 0 -93 -88 -200 -195z"/>
<path d="M0 3840 l0 -415 207 208 208 207 -208 207 -207 208 0 -415z"/>
<path d="M1070 4045 l-205 -205 208 -208 207 -207 207 207 208 208 -205 205 c-113 113 -207 205 -210 205 -3 0 -97 -92 -210 -205z"/>
<path d="M2350 4045 l-205 -205 208 -208 207 -207 207 207 208 208 -205 205 c-113 113 -207 205 -210 205 -3 0 -97 -92 -210 -205z"/>
<path d="M3630 4045 l-205 -205 208 -208 207 -207 207 207 208 208 -205 205 c-113 113 -207 205 -210 205 -3 0 -97 -92 -210 -205z"/>
<path d="M4910 4045 l-205 -205 208 -208 207 -207 207 207 208 208 -205 205 c-113 113 -207 205 -210 205 -3 0 -97 -92 -210 -205z"/>
<path d="M6190 4045 l-205 -205 208 -208 207 -207 207 207 208 208 -205 205 c-113 113 -207 205 -210 205 -3 0 -97 -92 -210 -205z"/>
<path d="M7470 4045 l-205 -205 208 -208 207 -207 207 207 208 208 -205 205 c-113 113 -207 205 -210 205 -3 0 -97 -92 -210 -205z"/>
<path d="M8750 4045 l-205 -205 208 -208 207 -207 207 207 208 208 -205 205 c-113 113 -207 205 -210 205 -3 0 -97 -92 -210 -205z"/>
<path d="M10030 4045 l-205 -205 208 -208 207 -207 207 207 208 208 -205 205 c-113 113 -207 205 -210 205 -3 0 -97 -92 -210 -205z"/>
<path d="M11310 4045 l-205 -205 208 -208 207 -207 207 207 208 208 -205 205 c-113 113 -207 205 -210 205 -3 0 -97 -92 -210 -205z"/>
<path d="M12590 4045 l-205 -205 208 -208 207 -207 0 413 c0 226 -1 412 -3 412 -1 0 -94 -92 -207 -205z"/>
<path d="M420 3415 l-215 -215 218 -218 217 -217 217 217 218 218 -215 215 c-118 118 -217 215 -220 215 -3 0 -102 -97 -220 -215z"/>
<path d="M1700 3415 l-215 -215 218 -218 217 -217 217 217 218 218 -215 215 c-118 118 -217 215 -220 215 -3 0 -102 -97 -220 -215z"/>
<path d="M2980 3415 l-215 -215 218 -218 217 -217 217 217 218 218 -215 215 c-118 118 -217 215 -220 215 -3 0 -102 -97 -220 -215z"/>
<path d="M4260 3415 l-215 -215 218 -218 217 -217 217 217 218 218 -215 215 c-118 118 -217 215 -220 215 -3 0 -102 -97 -220 -215z"/>
<path d="M5540 3415 l-215 -215 218 -218 217 -217 217 217 218 218 -215 215 c-118 118 -217 215 -220 215 -3 0 -102 -97 -220 -215z"/>
<path d="M6820 3415 l-215 -215 218 -218 217 -217 217 217 218 218 -215 215 c-118 118 -217 215 -220 215 -3 0 -102 -97 -220 -215z"/>
<path d="M8100 3415 l-215 -215 218 -218 217 -217 217 217 218 218 -215 215 c-118 118 -217 215 -220 215 -3 0 -102 -97 -220 -215z"/>
<path d="M9380 3415 l-215 -215 218 -218 217 -217 217 217 218 218 -215 215 c-118 118 -217 215 -220 215 -3 0 -102 -97 -220 -215z"/>
<path d="M10660 3415 l-215 -215 218 -218 217 -217 217 217 218 218 -215 215 c-118 118 -217 215 -220 215 -3 0 -102 -97 -220 -215z"/>
<path d="M11940 3415 l-215 -215 218 -218 217 -217 217 217 218 218 -215 215 c-118 118 -217 215 -220 215 -3 0 -102 -97 -220 -215z"/>
<path d="M0 2560 l0 -465 232 233 233 232 -233 232 -232 233 0 -465z"/>
<path d="M1045 2790 l-230 -230 233 -233 232 -232 232 232 233 233 -230 230 c-126 126 -232 230 -235 230 -3 0 -109 -104 -235 -230z"/>
<path d="M2325 2790 l-230 -230 233 -233 232 -232 232 232 233 233 -230 230 c-126 126 -232 230 -235 230 -3 0 -109 -104 -235 -230z"/>
<path d="M3605 2790 l-230 -230 233 -233 232 -232 232 232 233 233 -230 230 c-126 126 -232 230 -235 230 -3 0 -109 -104 -235 -230z"/>
<path d="M4885 2790 l-230 -230 233 -233 232 -232 232 232 233 233 -230 230 c-126 126 -232 230 -235 230 -3 0 -109 -104 -235 -230z"/>
<path d="M6165 2790 l-230 -230 233 -233 232 -232 232 232 233 233 -230 230 c-126 126 -232 230 -235 230 -3 0 -109 -104 -235 -230z"/>
<path d="M7445 2790 l-230 -230 233 -233 232 -232 232 232 233 233 -230 230 c-126 126 -232 230 -235 230 -3 0 -109 -104 -235 -230z"/>
<path d="M8725 2790 l-230 -230 233 -233 232 -232 232 232 233 233 -230 230 c-126 126 -232 230 -235 230 -3 0 -109 -104 -235 -230z"/>
<path d="M10005 2790 l-230 -230 233 -233 232 -232 232 232 233 233 -230 230 c-126 126 -232 230 -235 230 -3 0 -109 -104 -235 -230z"/>
<path d="M11285 2790 l-230 -230 233 -233 232 -232 232 232 233 233 -230 230 c-126 126 -232 230 -235 230 -3 0 -109 -104 -235 -230z"/>
<path d="M12565 2790 l-230 -230 233 -233 232 -232 0 463 c0 254 -1 462 -3 462 -1 0 -106 -104 -232 -230z"/>
<path d="M395 2160 l-240 -240 243 -243 242 -242 242 242 243 243 -240 240 c-132 132 -242 240 -245 240 -3 0 -113 -108 -245 -240z"/>
<path d="M1675 2160 l-240 -240 243 -243 242 -242 242 242 243 243 -240 240 c-132 132 -242 240 -245 240 -3 0 -113 -108 -245 -240z"/>
<path d="M2955 2160 l-240 -240 243 -243 242 -242 242 242 243 243 -240 240 c-132 132 -242 240 -245 240 -3 0 -113 -108 -245 -240z"/>
<path d="M4235 2160 l-240 -240 243 -243 242 -242 242 242 243 243 -240 240 c-132 132 -242 240 -245 240 -3 0 -113 -108 -245 -240z"/>
<path d="M5515 2160 l-240 -240 243 -243 242 -242 242 242 243 243 -240 240 c-132 132 -242 240 -245 240 -3 0 -113 -108 -245 -240z"/>
<path d="M6795 2160 l-240 -240 243 -243 242 -242 242 242 243 243 -240 240 c-132 132 -242 240 -245 240 -3 0 -113 -108 -245 -240z"/>
<path d="M8075 2160 l-240 -240 243 -243 242 -242 242 242 243 243 -240 240 c-132 132 -242 240 -245 240 -3 0 -113 -108 -245 -240z"/>
<path d="M9355 2160 l-240 -240 243 -243 242 -242 242 242 243 243 -240 240 c-132 132 -242 240 -245 240 -3 0 -113 -108 -245 -240z"/>
<path d="M10635 2160 l-240 -240 243 -243 242 -242 242 242 243 243 -240 240 c-132 132 -242 240 -245 240 -3 0 -113 -108 -245 -240z"/>
<path d="M11915 2160 l-240 -240 243 -243 242 -242 242 242 243 243 -240 240 c-132 132 -242 240 -245 240 -3 0 -113 -108 -245 -240z"/>
<path d="M0 1280 l0 -505 252 253 253 252 -253 252 -252 253 0 -505z"/>
<path d="M1025 1530 l-250 -250 253 -253 252 -252 252 252 253 253 -250 250 c-137 137 -252 250 -255 250 -3 0 -118 -113 -255 -250z"/>
<path d="M2305 1530 l-250 -250 253 -253 252 -252 252 252 253 253 -250 250 c-137 137 -252 250 -255 250 -3 0 -118 -113 -255 -250z"/>
<path d="M3585 1530 l-250 -250 253 -253 252 -252 252 252 253 253 -250 250 c-137 137 -252 250 -255 250 -3 0 -118 -113 -255 -250z"/>
<path d="M4865 1530 l-250 -250 253 -253 252 -252 252 252 253 253 -250 250 c-137 137 -252 250 -255 250 -3 0 -118 -113 -255 -250z"/>
<path d="M6145 1530 l-250 -250 253 -253 252 -252 252 252 253 253 -250 250 c-137 137 -252 250 -255 250 -3 0 -118 -113 -255 -250z"/>
<path d="M7425 1530 l-250 -250 253 -253 252 -252 252 252 253 253 -250 250 c-137 137 -252 250 -255 250 -3 0 -118 -113 -255 -250z"/>
<path d="M8705 1530 l-250 -250 253 -253 252 -252 252 252 253 253 -250 250 c-137 137 -252 250 -255 250 -3 0 -118 -113 -255 -250z"/>
<path d="M9985 1530 l-250 -250 253 -253 252 -252 252 252 253 253 -250 250 c-137 137 -252 250 -255 250 -3 0 -118 -113 -255 -250z"/>
<path d="M11265 1530 l-250 -250 253 -253 252 -252 252 252 253 253 -250 250 c-137 137 -252 250 -255 250 -3 0 -118 -113 -255 -250z"/>
<path d="M12545 1530 l-250 -250 253 -253 252 -252 0 503 c0 276 -1 502 -3 502 -1 0 -115 -113 -252 -250z"/>
<path d="M372 907 l-262 -263 265 -264 265 -265 265 265 265 264 -262 263 c-145 145 -265 263 -268 263 -3 0 -123 -118 -268 -263z"/>
<path d="M1652 907 l-262 -263 265 -264 265 -265 265 265 265 264 -262 263 c-145 145 -265 263 -268 263 -3 0 -123 -118 -268 -263z"/>
<path d="M2932 907 l-262 -263 265 -264 265 -265 265 265 265 264 -262 263 c-145 145 -265 263 -268 263 -3 0 -123 -118 -268 -263z"/>
<path d="M4212 907 l-262 -263 265 -264 265 -265 265 265 265 264 -262 263 c-145 145 -265 263 -268 263 -3 0 -123 -118 -268 -263z"/>
<path d="M5492 907 l-262 -263 265 -264 265 -265 265 265 265 264 -262 263 c-145 145 -265 263 -268 263 -3 0 -123 -118 -268 -263z"/>
<path d="M6772 907 l-262 -263 265 -264 265 -265 265 265 265 264 -262 263 c-145 145 -265 263 -268 263 -3 0 -123 -118 -268 -263z"/>
<path d="M8052 907 l-262 -263 265 -264 265 -265 265 265 265 264 -262 263 c-145 145 -265 263 -268 263 -3 0 -123 -118 -268 -263z"/>
<path d="M9332 907 l-262 -263 265 -264 265 -265 265 265 265 264 -262 263 c-145 145 -265 263 -268 263 -3 0 -123 -118 -268 -263z"/>
<path d="M10612 907 l-262 -263 265 -264 265 -265 265 265 265 264 -262 263 c-145 145 -265 263 -268 263 -3 0 -123 -118 -268 -263z"/>
<path d="M11892 907 l-262 -263 265 -264 265 -265 265 265 265 264 -262 263 c-145 145 -265 263 -268 263 -3 0 -123 -118 -268 -263z"/>
<path d="M0 275 l0 -275 277 0 278 0 -275 275 c-151 151 -276 275 -277 275 -2 0 -3 -124 -3 -275z"/>
<path d="M1000 275 l-275 -275 555 0 555 0 -275 275 c-151 151 -277 275 -280 275 -3 0 -129 -124 -280 -275z"/>
<path d="M2280 275 l-275 -275 555 0 555 0 -275 275 c-151 151 -277 275 -280 275 -3 0 -129 -124 -280 -275z"/>
<path d="M3560 275 l-275 -275 555 0 555 0 -275 275 c-151 151 -277 275 -280 275 -3 0 -129 -124 -280 -275z"/>
<path d="M4840 275 l-275 -275 555 0 555 0 -275 275 c-151 151 -277 275 -280 275 -3 0 -129 -124 -280 -275z"/>
<path d="M6120 275 l-275 -275 555 0 555 0 -275 275 c-151 151 -277 275 -280 275 -3 0 -129 -124 -280 -275z"/>
<path d="M7400 275 l-275 -275 555 0 555 0 -275 275 c-151 151 -277 275 -280 275 -3 0 -129 -124 -280 -275z"/>
<path d="M8680 275 l-275 -275 555 0 555 0 -275 275 c-151 151 -277 275 -280 275 -3 0 -129 -124 -280 -275z"/>
<path d="M9960 275 l-275 -275 555 0 555 0 -275 275 c-151 151 -277 275 -280 275 -3 0 -129 -124 -280 -275z"/>
<path d="M11240 275 l-275 -275 555 0 555 0 -275 275 c-151 151 -277 275 -280 275 -3 0 -129 -124 -280 -275z"/>
<path d="M12520 275 l-275 -275 278 0 277 0 0 275 c0 151 -1 275 -3 275 -1 0 -126 -124 -277 -275z"/>
</g>
</svg>