<?xml version="1.0" encoding="UTF-8"?>
<svg width="17px" height="18px" viewBox="0 0 17 18" version="1.1" xmlns="http://www.w3.org/2000/svg" xmlns:xlink="http://www.w3.org/1999/xlink">
    <!-- Generator: Sketch 58 (84663) - https://sketch.com -->
    <title>Full Color Mark</title>
    <desc>Created with Sketch.</desc>
    <g id="Concept" stroke="none" stroke-width="1" fill="none" fill-rule="evenodd">
        <g id="/home-copy" transform="translate(-766.000000, -6307.000000)" fill-rule="nonzero">
            <g id="Group-29" transform="translate(250.000000, 6306.000000)">
                <g id="Group-7-Copy-5" transform="translate(516.000000, 0.000000)">
                    <g id="Full-Color-Mark" transform="translate(8.500000, 10.000000) rotate(-90.000000) translate(-8.500000, -10.000000) translate(0.000000, 1.500000)">
                        <path d="M7.14609722,17 L13.5620005,17 C17.5086811,17 18.1525241,14.7771193 14.9987055,12.0338751 L5.7093922,4.37966115 C2.55618196,1.6369461 0,3.11095438 0,7.67090386 L0,8.74263241 C0,13.3030506 3.19950939,17 7.14609722,17" id="Rectangle" fill="#41B6AC" style="mix-blend-mode: multiply;"></path>
                        <path d="M7.14609722,0 L13.5620005,0 C17.5086811,0 18.1525241,2.22288071 14.9987055,4.96612493 L5.7093922,12.6203388 C2.55618196,15.3630539 0,13.8890457 0,9.32909613 L0,8.2573676 C0,3.6969494 3.19950939,0 7.14609722,0" id="Rectangle-Copy" fill="#73B641" style="mix-blend-mode: multiply;"></path>
                    </g>
                </g>
            </g>
        </g>
    </g>
</svg>